<svg width="209" height="77" viewBox="0 0 209 77" fill="none" xmlns="http://www.w3.org/2000/svg">
    <g clip-path="url(#q5jcjuctha)" fill="#231F20">
        <path d="M84.248 47.626c0 5.056-2.626 8.581-7.256 8.581-4.864 0-7.061-3.435-7.546-9.273l5.211-.928c.388 4.169 1.123 5.203 2.335 5.203 1.366 0 1.948-.88 1.948-3.086 0-3.29-.93-4.91-4.089-8.239-3.361-3.631-5.163-6.765-5.163-10.69 0-4.803 2.335-8.385 7.013-8.385 4.679 0 6.666 3.24 7.305 8.288l-5.115 1.075c-.388-3.387-.97-4.413-2.19-4.413s-1.753.83-1.753 2.988c0 2.401.776 3.875 3.507 6.716 3.894 4.07 5.793 7.458 5.793 12.163M93.112 21.33h-5.454v34.332h5.454V21.33zM112.77 38.256c0 11.772-2.772 17.414-8.961 17.414h-6.23V21.33h6.763c6.618 0 8.42 6.277 8.42 16.926h.008zm-5.608.049c0-10.055-.977-12.163-3.264-12.163h-.929v24.765h.824c2.19 0 3.361-2.206 3.361-12.602M129.568 55.67h-13.195V21.33h12.758v5.105h-7.304v8.58h5.599v5.105h-5.599v10.445h7.741v5.105zM146.268 47.626c0 5.056-2.625 8.581-7.255 8.581-4.864 0-7.054-3.435-7.547-9.273l5.212-.928c.388 4.169 1.123 5.203 2.335 5.203 1.365 0 1.947-.88 1.947-3.086 0-3.29-.929-4.91-4.088-8.239-3.362-3.631-5.163-6.765-5.163-10.69 0-4.803 2.335-8.385 7.013-8.385s6.666 3.24 7.304 8.288l-5.114 1.075c-.388-3.387-.97-4.413-2.19-4.413s-1.753.83-1.753 2.988c0 2.401.775 3.875 3.506 6.716 3.895 4.07 5.793 7.458 5.793 12.163M164.965 55.67h-5.454V39.925h-4.476V55.67h-5.454V21.33h5.454v13.49h4.476V21.33h5.454v34.34zM184.486 38.402c0 11.968-1.947 17.805-8.08 17.805s-7.837-5.74-7.837-17.61 1.898-17.804 7.934-17.804c6.036 0 7.983 5.886 7.983 17.61zm-5.648.196c0-10.494-.63-12.75-2.384-12.75-1.753 0-2.286 2.158-2.286 12.554 0 10.397.63 12.758 2.335 12.758s2.335-2.158 2.335-12.554M208.24 21.338l-4.088 34.332h-4.573l-1.212-9.078a238.95 238.95 0 0 1-1.22-11.04c-.194 2.891-.679 7.458-1.172 10.992l-1.268 9.126h-4.573l-4.04-34.332h5.017l1.123 11.235c.291 2.744.534 6.97.679 10.201.242-3.24.63-7.457.929-10.2l1.22-11.236h4.186l1.268 11.235c.291 2.744.679 6.97.921 10.201.146-3.24.437-7.457.687-10.2l1.067-11.236h5.066-.017zM54.296 61.019c-.485.602-.97 1.197-1.551 1.75-.945.904-2.02 1.702-3.16 2.45v6.717H5.406v-7.124c5.018 1.425 10.577 2.402 16.144 2.687 1.503.073 2.957.114 4.371.114 11.287 0 19.763-2.442 24.676-7.14 2.884-2.76 4.403-6.285 4.403-10.193 0-11.34-11.312-14.971-21.29-18.179-8.217-2.638-15.982-5.137-15.982-11.414 0-1.58.55-2.898 1.64-3.94 1.818-1.743 5.074-2.59 9.203-2.37 8.775.448 16.087 5.61 20.806 14.508.145.277.218.586.218.896v5.577c1.777 1.156 3.353 2.507 4.678 4.07h.347V0H.372v15.485h.323c.46-.562.921-1.124 1.47-1.645.954-.912 2.06-1.718 3.24-2.475V5.064h44.18v9.33c-5.284-2.605-12.806-4.56-19.787-4.918-11.336-.578-20.385 1.783-25.475 6.66C1.495 18.847 0 22.266 0 26.02c0 10.762 11.11 14.515 20.919 17.82 8.467 2.858 16.466 5.561 16.466 12.115 0 1.571-.557 2.906-1.672 3.973-2.036 1.954-5.93 2.939-10.698 2.686-8.007-.407-14.439-3.802-19.23-9.997a1.907 1.907 0 0 1-.388-1.148V40.584C3.62 39.436 2.044 38.101.72 36.562H.372V77h54.247V61.019h-.323zM208.152 53.74c0 .285-.146.456-.388.521l.363.725h-.307l-.347-.7h-.396v.7h-.259v-1.775h.776c.307 0 .566.163.566.53h-.008zm-.259 0c0-.187-.121-.285-.299-.285h-.517v.57h.517c.178 0 .299-.09.299-.285"/>
        <path d="M207.449 55.67c-.857 0-1.552-.7-1.552-1.563s.695-1.563 1.552-1.563c.856 0 1.551.7 1.551 1.563s-.695 1.563-1.551 1.563zm0-2.915c-.744 0-1.341.61-1.341 1.352 0 .74.597 1.351 1.341 1.351.743 0 1.341-.61 1.341-1.351s-.598-1.352-1.341-1.352z"/>
    </g>
    <defs>
        <clipPath id="q5jcjuctha">
            <path fill="#fff" d="M0 0h209v77H0z"/>
        </clipPath>
    </defs>
</svg>
